<svg id="Layer_1" data-name="Layer 1" xmlns="http://www.w3.org/2000/svg" width="30.4" height="30.4" viewBox="0 0 30.4 30.4">
  <defs>
    <style>
      .cls-1 {
        fill: #ff3860;
      }

      .cls-2 {
        fill: #fff;
      }
    </style>
  </defs>
  <title>train-warning</title>
  <circle class="cls-1" cx="15.2" cy="15.2" r="15.2"/>
  <path class="cls-2" d="M21.86,3.89a1.35,1.35,0,0,0-1.16-1H9.32a1.35,1.35,0,0,0-1.16,1c-1,2.45-2.05,4.25-2.42,7.58-0.08,2.32-.19,4.68-0.16,7.06,0,1.42,1.65,3.61,3.05,3.61H21.39c1.4,0,3-2.19,3-3.61,0-2.38-.08-4.74-0.16-7.06C23.91,8.14,22.88,6.34,21.86,3.89ZM10.4,16.26a1.2,1.2,0,0,1-1.69-1.69v0H8.76a1.2,1.2,0,0,1,1.79,1.6Zm10.92,0a1.2,1.2,0,1,1-.06-1.7h0.06v0.05A1.2,1.2,0,0,1,21.32,16.21Zm1.12-6.83H7.59c-0.31,0-.43-0.55-0.31-1.07,0.65-1.31,1.4-3.85,2-3.85H20.78c0.56,0,1.31,2.57,2,3.85C22.87,8.83,22.75,9.38,22.44,9.38Z"/>
  <polygon class="cls-2" points="21.93 22.8 18.07 22.8 18.07 24.08 15.01 24.08 11.95 24.08 11.95 22.8 8.09 22.8 8.09 24.08 5.59 24.08 5.59 25.88 15.01 25.88 24.44 25.88 24.44 24.08 21.93 24.08 21.93 22.8"/>
</svg>
