<?xml version="1.0" encoding="utf-8"?>
<!-- Generator: Adobe Illustrator 19.2.1, SVG Export Plug-In . SVG Version: 6.00 Build 0)  -->
<svg version="1.1" id="Layer_1" xmlns="http://www.w3.org/2000/svg" xmlns:xlink="http://www.w3.org/1999/xlink" x="0px" y="0px"
	 viewBox="0 0 50 50" style="enable-background:new 0 0 50 50;" xml:space="preserve">
<style type="text/css">
	.st0{fill:#00D1B2;}
	.st1{fill:#FFFFFF;stroke:#FFFFFF;stroke-width:0.25;}
	.st2{fill:#FFFFFF;}
</style>
<g id="g1327">
	<path id="path1329" class="st0" d="M5.6,0C2,0,0,1.9,0,5.6v39C0,48.2,1.8,50,5.4,50h39.2c3.6,0,5.4-1.8,5.4-5.4v-39
		C50,2,48.2,0,44.5,0H5.6z"/>
</g>
<title>estacion-icon</title>
<g id="layer1">
	<g id="g2285">
		<path id="path2251" class="st1" d="M10.7,10.1c-0.7,0.1-1.3,0.6-1.5,1.3c-1.3,3.2-2.7,5.5-3.1,9.8c-0.1,3-0.2,6.1-0.2,9.1
			c0,1.8,2.1,4.7,3.9,4.7h34.3v-3.4l-0.2-0.1v-3.1h0.2v-0.9c-7.5-2.2-13.6-7.7-16.4-15c-0.5-1.4-1.7-2.4-3.2-2.5L10.7,10.1
			L10.7,10.1z M10.6,12.1H24c0.8,0,1.7,3.3,2.3,5c0.2,0.5,0,1.4-0.4,1.4H8.5c-0.4,0-0.6-0.7-0.4-1.4C8.9,15.5,9.9,12.2,10.6,12.1
			L10.6,12.1z M29.2,19.3c0.9,1,1.9,2,2.9,2.8V28l-2.6-1.2C29.3,24.4,29.2,21.9,29.2,19.3L29.2,19.3L29.2,19.3z M33.7,23.5
			c0.8,0.6,1.6,1.2,2.5,1.8v4.4l-2.5-1.1C33.6,26.2,33.7,26,33.7,23.5L33.7,23.5L33.7,23.5z M10,25.2L10,25.2
			c0.6-0.6,1.6-0.6,2.2,0.1s0.6,1.6-0.1,2.2c-0.6,0.6-1.6,0.6-2.2-0.1C9.4,26.8,9.4,25.8,10,25.2L10,25.2L10,25.2z M23.1,25.2
			L23.1,25.2c0.7-0.5,1.7-0.4,2.3,0.2s0.4,1.6-0.2,2.2S23.5,28,23,27.4C22.5,26.7,22.5,25.8,23.1,25.2L23.1,25.2z M37.5,26.2l2.5,1
			v3.7c-0.9-0.1-1.7-0.3-2.5-0.7V26.2L37.5,26.2z M41,27.7l2,0.5v3.3c-0.7,0-1.4-0.1-2-0.4V27.7L41,27.7z"/>
		<path id="path2283" class="st2" d="M21.4,35.9v1.7h-7.3v-1.7h-5v1.7H5.9v2.3h23.2c4.7-2.1,9.8-3.3,15-3.6v-0.4H21.4z"/>
	</g>
</g>
</svg>
